<svg xmlns="http://www.w3.org/2000/svg" xmlns:xlink="http://www.w3.org/1999/xlink" width="1040" height="884.98"><rect width="1040" height="884.98" rx="5" ry="5" class="a"/><svg y="0%" x="0%"><circle cx="20" cy="20" r="6" fill="#ff5f58"/><circle cx="40" cy="20" r="6" fill="#ffbd2e"/><circle cx="60" cy="20" r="6" fill="#18c132"/></svg><svg height="824.98" viewBox="0 0 100 82.498" width="1000" x="15" xmlns="http://www.w3.org/2000/svg" xmlns:xlink="http://www.w3.org/1999/xlink" y="50"><style>@keyframes u{0%{transform:translateX(-100px)}4.8%{transform:translateX(-200px)}5.8%{transform:translateX(-300px)}6.8%{transform:translateX(-400px)}7.7%{transform:translateX(-500px)}8.7%{transform:translateX(-600px)}9.7%{transform:translateX(-700px)}10.6%{transform:translateX(-800px)}11.6%{transform:translateX(-900px)}12.6%{transform:translateX(-1000px)}13.5%{transform:translateX(-1100px)}14.5%{transform:translateX(-1200px)}15.5%{transform:translateX(-1300px)}19.3%{transform:translateX(-1400px)}48.4%{transform:translateX(-1500px)}51.3%{transform:translateX(-1600px)}53.2%{transform:translateX(-1700px)}55.1%{transform:translateX(-1800px)}57.1%{transform:translateX(-1900px)}61.9%{transform:translateX(-2000px)}66.7%{transform:translateX(-2100px)}67.6%{transform:translateX(-2200px)}68.5%{transform:translateX(-2300px)}69.3%{transform:translateX(-2400px)}70.2%{transform:translateX(-2500px)}71.1%{transform:translateX(-2600px)}72%{transform:translateX(-2700px)}72.8%{transform:translateX(-2800px)}73.7%{transform:translateX(-2900px)}74.6%{transform:translateX(-3000px)}75.4%{transform:translateX(-3100px)}76.3%{transform:translateX(-3200px)}77.2%{transform:translateX(-3300px)}78%{transform:translateX(-3400px)}78.9%{transform:translateX(-3500px)}84.7%{transform:translateX(-3600px)}86.5%{transform:translateX(-3700px)}88.2%{transform:translateX(-3800px)}89.9%{transform:translateX(-3900px)}91.7%{transform:translateX(-4000px)}93.4%{transform:translateX(-4100px)}to{transform:translateX(-4200px)}}.a{fill:#282d35}.f{fill:#a8cc8c;font-weight:700}.f,.g,.h,.i{white-space:pre}.g{fill:#71bef2;font-weight:700}.h,.i{fill:#b9c0cb}.i{fill:#e88388}.j,.k,.l,.m,.n,.q{fill:#fff;white-space:pre}.k,.l,.m,.n,.q{fill:#6f7783}.l,.m,.n,.q{fill:#dbab79}.m,.n,.q{fill:#b9bfca}.n,.q{fill:#66c2cd}.q{fill:#e88388;font-weight:700}</style><g font-family="Monaco,Consolas,Menlo,'Bitstream Vera Sans Mono','Powerline Symbols',monospace" font-size="1.67"><defs><symbol id="1"><text y="1.67" class="f">~/p-agents</text><text x="11.022" y="1.67" class="g">❯</text></symbol><symbol id="2"><text y="1.67" class="f">~/p-agents</text><text x="11.022" y="1.67" class="g">❯</text><text x="13.026" y="1.67" class="h">vim</text></symbol><symbol id="3"><text y="1.67" class="f">~/p-agents</text><text x="11.022" y="1.67" class="g">❯</text><text x="13.026" y="1.67" class="h">vim</text><text x="17.034" y="1.67" class="h">demo.py</text></symbol><symbol id="4"><text x="3.006" y="1.67" class="h">1</text><text x="5.01" y="1.67" class="i">from</text><text x="10.02" y="1.67" class="j">memlint</text><text x="18.036" y="1.67" class="i">import</text><text x="25.05" y="1.67" class="j">StaleDetector,</text><text x="40.08" y="1.67" class="j">MemoryFact</text></symbol><symbol id="5"><text x="3.006" y="1.67" class="h">2</text><text x="5.01" y="1.67" class="i">from</text><text x="10.02" y="1.67" class="j">datetime</text><text x="19.038" y="1.67" class="i">import</text><text x="26.052" y="1.67" class="j">datetime</text></symbol><symbol id="6"><text x="3.006" y="1.67" class="h">3</text></symbol><symbol id="7"><text x="3.006" y="1.67" class="h">4</text><text x="5.01" y="1.67" class="k">#</text><text x="7.014" y="1.67" class="k">memories</text><text x="16.032" y="1.67" class="k">retrieved</text><text x="26.052" y="1.67" class="k">from</text><text x="31.062" y="1.67" class="k">your</text><text x="36.072" y="1.67" class="k">vector</text><text x="43.086" y="1.67" class="k">DB</text><text x="46.092" y="1.67" class="k">(Pinecone,</text><text x="57.114" y="1.67" class="k">Qdrant,</text><text x="65.13" y="1.67" class="k">Chroma...)</text></symbol><symbol id="8"><text x="3.006" y="1.67" class="h">5</text><text x="5.01" y="1.67" class="j">facts</text><text x="11.022" y="1.67" class="i">=</text><text x="13.026" y="1.67" class="j">[</text></symbol><symbol id="9"><text x="3.006" y="1.67" class="h">6</text><text x="9.018" y="1.67" class="j">MemoryFact(</text></symbol><symbol id="10"><text x="3.006" y="1.67" class="h">7</text><text x="13.026" y="1.67" class="j">id</text><text x="15.03" y="1.67" class="i">=</text><text x="16.032" y="1.67" class="l">&quot;mem_1&quot;</text><text x="23.046" y="1.67" class="j">,</text></symbol><symbol id="11"><text x="3.006" y="1.67" class="h">8</text><text x="13.026" y="1.67" class="j">content</text><text x="20.04" y="1.67" class="i">=</text><text x="21.042" y="1.67" class="l">&quot;User</text><text x="27.054" y="1.67" class="l">works</text><text x="33.066" y="1.67" class="l">at</text><text x="36.072" y="1.67" class="l">Acme</text><text x="41.082" y="1.67" class="l">Corp</text><text x="46.092" y="1.67" class="l">as</text><text x="49.098" y="1.67" class="l">senior</text><text x="56.112" y="1.67" class="l">consultant&quot;</text><text x="67.134" y="1.67" class="j">,</text></symbol><symbol id="12"><text x="3.006" y="1.67" class="h">9</text><text x="13.026" y="1.67" class="j">created_at</text><text x="23.046" y="1.67" class="i">=</text><text x="24.048" y="1.67" class="j">datetime(</text><text x="33.066" y="1.67" class="m">2024</text><text x="37.074" y="1.67" class="j">,</text><text x="39.078" y="1.67" class="m">3</text><text x="40.08" y="1.67" class="j">,</text><text x="42.084" y="1.67" class="m">15</text><text x="44.088" y="1.67" class="j">),</text></symbol><symbol id="13"><text x="2.004" y="1.67" class="h">10</text><text x="9.018" y="1.67" class="j">),</text></symbol><symbol id="14"><text x="2.004" y="1.67" class="h">11</text><text x="9.018" y="1.67" class="j">MemoryFact(</text></symbol><symbol id="15"><text x="2.004" y="1.67" class="h">12</text><text x="13.026" y="1.67" class="j">id</text><text x="15.03" y="1.67" class="i">=</text><text x="16.032" y="1.67" class="l">&quot;mem_2&quot;</text><text x="23.046" y="1.67" class="j">,</text></symbol><symbol id="16"><text x="2.004" y="1.67" class="h">13</text><text x="13.026" y="1.67" class="j">content</text><text x="20.04" y="1.67" class="i">=</text><text x="21.042" y="1.67" class="l">&quot;User</text><text x="27.054" y="1.67" class="l">lives</text><text x="33.066" y="1.67" class="l">in</text><text x="36.072" y="1.67" class="l">New</text><text x="40.08" y="1.67" class="l">Delhi&quot;</text><text x="46.092" y="1.67" class="j">,</text></symbol><symbol id="17"><text x="2.004" y="1.67" class="h">14</text><text x="13.026" y="1.67" class="j">created_at</text><text x="23.046" y="1.67" class="i">=</text><text x="24.048" y="1.67" class="j">datetime(</text><text x="33.066" y="1.67" class="m">2025</text><text x="37.074" y="1.67" class="j">,</text><text x="39.078" y="1.67" class="m">2</text><text x="40.08" y="1.67" class="j">,</text><text x="42.084" y="1.67" class="m">10</text><text x="44.088" y="1.67" class="j">),</text></symbol><symbol id="18"><text x="2.004" y="1.67" class="h">15</text><text x="9.018" y="1.67" class="j">),</text></symbol><symbol id="19"><text x="2.004" y="1.67" class="h">16</text><text x="9.018" y="1.67" class="j">MemoryFact(</text></symbol><symbol id="20"><text x="2.004" y="1.67" class="h">17</text><text x="13.026" y="1.67" class="j">id</text><text x="15.03" y="1.67" class="i">=</text><text x="16.032" y="1.67" class="l">&quot;mem_3&quot;</text><text x="23.046" y="1.67" class="j">,</text></symbol><symbol id="21"><text x="2.004" y="1.67" class="h">18</text><text x="13.026" y="1.67" class="j">content</text><text x="20.04" y="1.67" class="i">=</text><text x="21.042" y="1.67" class="l">&quot;User</text><text x="27.054" y="1.67" class="l">is</text><text x="30.06" y="1.67" class="l">building</text><text x="39.078" y="1.67" class="l">pract-agents</text><text x="52.104" y="1.67" class="l">with</text><text x="57.114" y="1.67" class="l">LangGraph&quot;</text><text x="67.134" y="1.67" class="j">,</text></symbol><symbol id="22"><text x="2.004" y="1.67" class="h">19</text><text x="13.026" y="1.67" class="j">created_at</text><text x="23.046" y="1.67" class="i">=</text><text x="24.048" y="1.67" class="j">datetime(</text><text x="33.066" y="1.67" class="m">2025</text><text x="37.074" y="1.67" class="j">,</text><text x="39.078" y="1.67" class="m">11</text><text x="41.082" y="1.67" class="j">,</text><text x="43.086" y="1.67" class="m">1</text><text x="44.088" y="1.67" class="j">),</text></symbol><symbol id="23"><text x="2.004" y="1.67" class="h">20</text><text x="9.018" y="1.67" class="j">),</text></symbol><symbol id="24"><text x="2.004" y="1.67" class="h">21</text><text x="5.01" y="1.67" class="j">]</text></symbol><symbol id="25"><text x="2.004" y="1.67" class="h">22</text></symbol><symbol id="26"><text x="2.004" y="1.67" class="h">23</text><text x="5.01" y="1.67" class="j">detector</text><text x="14.028" y="1.67" class="i">=</text><text x="16.032" y="1.67" class="j">StaleDetector()</text></symbol><symbol id="27"><text x="2.004" y="1.67" class="h">24</text></symbol><symbol id="28"><text x="2.004" y="1.67" class="h">25</text><text x="5.01" y="1.67" class="k">#</text><text x="7.014" y="1.67" class="k">check</text><text x="13.026" y="1.67" class="k">all</text><text x="17.034" y="1.67" class="k">facts</text><text x="23.046" y="1.67" class="k">and</text><text x="27.054" y="1.67" class="k">get</text><text x="31.062" y="1.67" class="k">a</text><text x="33.066" y="1.67" class="k">full</text><text x="38.076" y="1.67" class="k">report</text></symbol><symbol id="29"><text x="2.004" y="1.67" class="h">26</text><text x="5.01" y="1.67" class="j">report</text><text x="12.024" y="1.67" class="i">=</text><text x="14.028" y="1.67" class="j">detector</text><text x="22.044" y="1.67" class="i">.</text><text x="23.046" y="1.67" class="j">check(facts)</text></symbol><symbol id="30"><text x="2.004" y="1.67" class="h">27</text><text x="5.01" y="1.67" class="j">print(</text><text x="11.022" y="1.67" class="l">f&quot;Flagged:</text><text x="22.044" y="1.67" class="l">{</text><text x="23.046" y="1.67" class="j">len(report</text><text x="33.066" y="1.67" class="i">.</text><text x="34.068" y="1.67" class="j">flagged)</text><text x="42.084" y="1.67" class="l">}</text><text x="44.088" y="1.67" class="l">/</text><text x="46.092" y="1.67" class="l">{</text><text x="47.094" y="1.67" class="j">report</text><text x="53.106" y="1.67" class="i">.</text><text x="54.108" y="1.67" class="j">total_facts</text><text x="65.13" y="1.67" class="l">}&quot;</text><text x="67.134" y="1.67" class="j">)</text></symbol><symbol id="31"><text x="2.004" y="1.67" class="h">28</text><text x="5.01" y="1.67" class="n">for</text><text x="9.018" y="1.67" class="j">r</text><text x="11.022" y="1.67" class="i">in</text><text x="14.028" y="1.67" class="j">report</text><text x="20.04" y="1.67" class="i">.</text><text x="21.042" y="1.67" class="j">flagged:</text></symbol><symbol id="32"><text x="2.004" y="1.67" class="h">29</text><text x="9.018" y="1.67" class="j">print(</text><text x="15.03" y="1.67" class="l">f&quot;</text><text x="19.038" y="1.67" class="l">[{</text><text x="21.042" y="1.67" class="j">r</text><text x="22.044" y="1.67" class="i">.</text><text x="23.046" y="1.67" class="j">staleness_level</text><text x="38.076" y="1.67" class="i">.</text><text x="39.078" y="1.67" class="j">value</text><text x="44.088" y="1.67" class="i">.</text><text x="45.09" y="1.67" class="j">upper()</text><text x="52.104" y="1.67" class="l">}]</text><text x="55.11" y="1.67" class="l">{</text><text x="56.112" y="1.67" class="j">r</text><text x="57.114" y="1.67" class="i">.</text><text x="58.116" y="1.67" class="j">content</text><text x="65.13" y="1.67" class="l">}&quot;</text><text x="67.134" y="1.67" class="j">)</text></symbol><symbol id="33"><text x="2.004" y="1.67" class="h">30</text></symbol><symbol id="34"><text x="2.004" y="1.67" class="h">31</text><text x="5.01" y="1.67" class="j">print()</text></symbol><symbol id="35"><text x="2.004" y="1.67" class="h">32</text></symbol><symbol id="36"><text x="2.004" y="1.67" class="h">33</text><text x="5.01" y="1.67" class="k">#</text><text x="7.014" y="1.67" class="k">filter</text><text x="14.028" y="1.67" class="k">to</text><text x="17.034" y="1.67" class="k">only</text><text x="22.044" y="1.67" class="k">safe</text><text x="27.054" y="1.67" class="k">facts</text><text x="33.066" y="1.67" class="k">before</text><text x="40.08" y="1.67" class="k">injecting</text><text x="50.1" y="1.67" class="k">into</text><text x="55.11" y="1.67" class="k">LLM</text><text x="59.118" y="1.67" class="k">context</text></symbol><symbol id="37"><text x="2.004" y="1.67" class="h">34</text><text x="5.01" y="1.67" class="j">safe</text><text x="10.02" y="1.67" class="i">=</text><text x="12.024" y="1.67" class="j">detector</text><text x="20.04" y="1.67" class="i">.</text><text x="21.042" y="1.67" class="j">filter_safe(facts)</text></symbol><symbol id="38"><text x="2.004" y="1.67" class="h">35</text><text x="5.01" y="1.67" class="j">print(</text><text x="11.022" y="1.67" class="l">f&quot;Safe</text><text x="18.036" y="1.67" class="l">to</text><text x="21.042" y="1.67" class="l">inject:</text><text x="29.058" y="1.67" class="l">{</text><text x="30.06" y="1.67" class="j">len(safe)</text><text x="39.078" y="1.67" class="l">}&quot;</text><text x="41.082" y="1.67" class="j">)</text></symbol><symbol id="39"><text x="2.004" y="1.67" class="h">36</text><text x="5.01" y="1.67" class="n">for</text><text x="9.018" y="1.67" class="j">f</text><text x="11.022" y="1.67" class="i">in</text><text x="14.028" y="1.67" class="j">safe:</text></symbol><symbol id="40"><text x="2.004" y="1.67" class="h">37</text><text x="9.018" y="1.67" class="j">print(</text><text x="15.03" y="1.67" class="l">f&quot;</text><text x="19.038" y="1.67" class="l">[OK]</text><text x="24.048" y="1.67" class="l">{</text><text x="25.05" y="1.67" class="j">f</text><text x="26.052" y="1.67" class="i">.</text><text x="27.054" y="1.67" class="j">content</text><text x="34.068" y="1.67" class="l">}&quot;</text><text x="36.072" y="1.67" class="j">)</text></symbol><symbol id="41"><path fill="#b9c0cb" d="M0 0h62v2.171H0z"/><text y="1.67" style="white-space:pre" fill="#282d35">demo.py 37L, 1032B</text></symbol><symbol id="42"><text y="1.67" class="h">:wq</text></symbol><symbol id="43"><text y="1.67" class="f">~/p-agents</text><text x="11.022" y="1.67" class="g">❯</text><text x="13.026" y="1.67" class="h">python</text></symbol><symbol id="44"><text y="1.67" class="f">~/p-agents</text><text x="11.022" y="1.67" class="g">❯</text><text x="13.026" y="1.67" class="h">python</text><text x="20.04" y="1.67" class="h">demo.py</text></symbol><symbol id="45"><text y="1.67" class="h">Flagged:</text><text x="9.018" y="1.67" class="i">3</text><text x="11.022" y="1.67" class="h">/</text><text x="13.026" y="1.67" class="h">3</text></symbol><symbol id="46"><text x="2.004" y="1.67" class="q">[EXPIRED]</text><text x="12.024" y="1.67" class="h">User</text><text x="17.034" y="1.67" class="h">works</text><text x="23.046" y="1.67" class="h">at</text><text x="26.052" y="1.67" class="h">Acme</text><text x="31.062" y="1.67" class="h">Corp</text><text x="36.072" y="1.67" class="h">as</text><text x="39.078" y="1.67" class="h">senior</text><text x="46.092" y="1.67" class="h">consultant</text></symbol><symbol id="47"><text x="2.004" y="1.67" class="q">[EXPIRED]</text><text x="12.024" y="1.67" class="h">User</text><text x="17.034" y="1.67" class="h">lives</text><text x="23.046" y="1.67" class="h">in</text><text x="26.052" y="1.67" class="h">New</text><text x="30.06" y="1.67" class="h">Delhi</text></symbol><symbol id="48"><text x="2.004" y="1.67" class="q">[EXPIRED]</text><text x="12.024" y="1.67" class="h">User</text><text x="17.034" y="1.67" class="h">is</text><text x="20.04" y="1.67" class="h">building</text><text x="29.058" y="1.67" class="h">pract-agents</text><text x="42.084" y="1.67" class="h">with</text><text x="47.094" y="1.67" class="h">LangGraph</text></symbol><symbol id="49"><text y="1.67" class="h">Safe</text><text x="5.01" y="1.67" class="h">to</text><text x="8.016" y="1.67" class="h">inject:</text><text x="16.032" y="1.67" style="white-space:pre" fill="#a8cc8c">0</text></symbol><symbol id="a"><path fill="transparent" d="M0 0h100v39H0z"/></symbol><symbol id="b"><path fill="#6f7683" d="M0 0h1.102v2.171H0z"/></symbol></defs><path class="a" d="M0 0h100v82.498H0z"/><g style="animation-duration:10.34s;animation-iteration-count:infinite;animation-name:u;animation-timing-function:steps(1,end)"><svg width="4300"><svg><use xlink:href="#a"/><use xlink:href="#b" x="-.004"/></svg><svg x="100"><use xlink:href="#a"/><use xlink:href="#b" x="12.996" y="2.146"/><use xlink:href="#1" y="2.171"/></svg><svg x="200"><use xlink:href="#a"/><use xlink:href="#b" x="13.996" y="2.146"/><text y="3.841" class="f">~/p-agents</text><text x="11.022" y="3.841" class="g">❯</text><text x="13.026" y="3.841" class="h">v</text></svg><svg x="300"><use xlink:href="#a"/><use xlink:href="#b" x="14.996" y="2.146"/><text y="3.841" class="f">~/p-agents</text><text x="11.022" y="3.841" class="g">❯</text><text x="13.026" y="3.841" class="h">vi</text></svg><svg x="400"><use xlink:href="#a"/><use xlink:href="#b" x="15.996" y="2.146"/><use xlink:href="#2" y="2.171"/></svg><svg x="500"><use xlink:href="#a"/><use xlink:href="#b" x="16.996" y="2.146"/><use xlink:href="#2" y="2.171"/></svg><svg x="600"><use xlink:href="#a"/><use xlink:href="#b" x="17.996" y="2.146"/><text y="3.841" class="f">~/p-agents</text><text x="11.022" y="3.841" class="g">❯</text><text x="13.026" y="3.841" class="h">vim</text><text x="17.034" y="3.841" class="h">d</text></svg><svg x="700"><use xlink:href="#a"/><use xlink:href="#b" x="18.996" y="2.146"/><text y="3.841" class="f">~/p-agents</text><text x="11.022" y="3.841" class="g">❯</text><text x="13.026" y="3.841" class="h">vim</text><text x="17.034" y="3.841" class="h">de</text></svg><svg x="800"><use xlink:href="#a"/><use xlink:href="#b" x="19.996" y="2.146"/><text y="3.841" class="f">~/p-agents</text><text x="11.022" y="3.841" class="g">❯</text><text x="13.026" y="3.841" class="h">vim</text><text x="17.034" y="3.841" class="h">dem</text></svg><svg x="900"><use xlink:href="#a"/><use xlink:href="#b" x="20.996" y="2.146"/><text y="3.841" class="f">~/p-agents</text><text x="11.022" y="3.841" class="g">❯</text><text x="13.026" y="3.841" class="h">vim</text><text x="17.034" y="3.841" class="h">demo</text></svg><svg x="1000"><use xlink:href="#a"/><use xlink:href="#b" x="21.996" y="2.146"/><text y="3.841" class="f">~/p-agents</text><text x="11.022" y="3.841" class="g">❯</text><text x="13.026" y="3.841" class="h">vim</text><text x="17.034" y="3.841" class="h">demo.</text></svg><svg x="1100"><use xlink:href="#a"/><use xlink:href="#b" x="22.996" y="2.146"/><text y="3.841" class="f">~/p-agents</text><text x="11.022" y="3.841" class="g">❯</text><text x="13.026" y="3.841" class="h">vim</text><text x="17.034" y="3.841" class="h">demo.p</text></svg><svg x="1200"><use xlink:href="#a"/><use xlink:href="#b" x="23.996" y="2.146"/><use xlink:href="#3" y="2.171"/></svg><svg x="1300"><use xlink:href="#a"/><use xlink:href="#b" x="-.004" y="4.317"/><use xlink:href="#3" y="2.171"/></svg><svg x="1400"><use xlink:href="#a"/><use xlink:href="#b" x="61.996" y="82.473"/><use xlink:href="#4"/><use xlink:href="#5" y="2.171"/><use xlink:href="#6" y="4.342"/><use xlink:href="#7" y="6.513"/><use xlink:href="#8" y="8.684"/><use xlink:href="#9" y="10.855"/><use xlink:href="#10" y="13.026"/><use xlink:href="#11" y="15.197"/><use xlink:href="#12" y="17.368"/><use xlink:href="#13" y="19.539"/><use xlink:href="#14" y="21.71"/><use xlink:href="#15" y="23.881"/><use xlink:href="#16" y="26.052"/><use xlink:href="#17" y="28.223"/><use xlink:href="#18" y="30.394"/><use xlink:href="#19" y="32.565"/><use xlink:href="#20" y="34.736"/><use xlink:href="#21" y="36.907"/><use xlink:href="#22" y="39.078"/><use xlink:href="#23" y="41.249"/><use xlink:href="#24" y="43.42"/><use xlink:href="#25" y="45.591"/><use xlink:href="#26" y="47.762"/><use xlink:href="#27" y="49.933"/><use xlink:href="#28" y="52.104"/><use xlink:href="#29" y="54.275"/><use xlink:href="#30" y="56.446"/><use xlink:href="#31" y="58.617"/><use xlink:href="#32" y="60.788"/><use xlink:href="#33" y="62.959"/><use xlink:href="#34" y="65.13"/><use xlink:href="#35" y="67.301"/><use xlink:href="#36" y="69.472"/><use xlink:href="#37" y="71.643"/><use xlink:href="#38" y="73.814"/><use xlink:href="#39" y="75.985"/><use xlink:href="#40" y="78.156"/><text x="2.004" y="81.997" class="h">38</text><use xlink:href="#41" y="82.498"/></svg><svg x="1500"><use xlink:href="#a"/><use xlink:href="#b" x="-.004" y="80.302"/><use xlink:href="#4"/><use xlink:href="#5" y="2.171"/><use xlink:href="#6" y="4.342"/><use xlink:href="#7" y="6.513"/><use xlink:href="#8" y="8.684"/><use xlink:href="#9" y="10.855"/><use xlink:href="#10" y="13.026"/><use xlink:href="#11" y="15.197"/><use xlink:href="#12" y="17.368"/><use xlink:href="#13" y="19.539"/><use xlink:href="#14" y="21.71"/><use xlink:href="#15" y="23.881"/><use xlink:href="#16" y="26.052"/><use xlink:href="#17" y="28.223"/><use xlink:href="#18" y="30.394"/><use xlink:href="#19" y="32.565"/><use xlink:href="#20" y="34.736"/><use xlink:href="#21" y="36.907"/><use xlink:href="#22" y="39.078"/><use xlink:href="#23" y="41.249"/><use xlink:href="#24" y="43.42"/><use xlink:href="#25" y="45.591"/><use xlink:href="#26" y="47.762"/><use xlink:href="#27" y="49.933"/><use xlink:href="#28" y="52.104"/><use xlink:href="#29" y="54.275"/><use xlink:href="#30" y="56.446"/><use xlink:href="#31" y="58.617"/><use xlink:href="#32" y="60.788"/><use xlink:href="#33" y="62.959"/><use xlink:href="#34" y="65.13"/><use xlink:href="#35" y="67.301"/><use xlink:href="#36" y="69.472"/><use xlink:href="#37" y="71.643"/><use xlink:href="#38" y="73.814"/><use xlink:href="#39" y="75.985"/><use xlink:href="#40" y="78.156"/><use xlink:href="#41" y="82.498"/></svg><svg x="1600"><use xlink:href="#a"/><use xlink:href="#b" x=".996" y="80.302"/><use xlink:href="#4"/><use xlink:href="#5" y="2.171"/><use xlink:href="#6" y="4.342"/><use xlink:href="#7" y="6.513"/><use xlink:href="#8" y="8.684"/><use xlink:href="#9" y="10.855"/><use xlink:href="#10" y="13.026"/><use xlink:href="#11" y="15.197"/><use xlink:href="#12" y="17.368"/><use xlink:href="#13" y="19.539"/><use xlink:href="#14" y="21.71"/><use xlink:href="#15" y="23.881"/><use xlink:href="#16" y="26.052"/><use xlink:href="#17" y="28.223"/><use xlink:href="#18" y="30.394"/><use xlink:href="#19" y="32.565"/><use xlink:href="#20" y="34.736"/><use xlink:href="#21" y="36.907"/><use xlink:href="#22" y="39.078"/><use xlink:href="#23" y="41.249"/><use xlink:href="#24" y="43.42"/><use xlink:href="#25" y="45.591"/><use xlink:href="#26" y="47.762"/><use xlink:href="#27" y="49.933"/><use xlink:href="#28" y="52.104"/><use xlink:href="#29" y="54.275"/><use xlink:href="#30" y="56.446"/><use xlink:href="#31" y="58.617"/><use xlink:href="#32" y="60.788"/><use xlink:href="#33" y="62.959"/><use xlink:href="#34" y="65.13"/><use xlink:href="#35" y="67.301"/><use xlink:href="#36" y="69.472"/><use xlink:href="#37" y="71.643"/><use xlink:href="#38" y="73.814"/><use xlink:href="#39" y="75.985"/><use xlink:href="#40" y="78.156"/><text y="81.997" class="h">:</text><use xlink:href="#41" y="82.498"/></svg><svg x="1700"><use xlink:href="#a"/><use xlink:href="#b" x="1.996" y="80.302"/><use xlink:href="#4"/><use xlink:href="#5" y="2.171"/><use xlink:href="#6" y="4.342"/><use xlink:href="#7" y="6.513"/><use xlink:href="#8" y="8.684"/><use xlink:href="#9" y="10.855"/><use xlink:href="#10" y="13.026"/><use xlink:href="#11" y="15.197"/><use xlink:href="#12" y="17.368"/><use xlink:href="#13" y="19.539"/><use xlink:href="#14" y="21.71"/><use xlink:href="#15" y="23.881"/><use xlink:href="#16" y="26.052"/><use xlink:href="#17" y="28.223"/><use xlink:href="#18" y="30.394"/><use xlink:href="#19" y="32.565"/><use xlink:href="#20" y="34.736"/><use xlink:href="#21" y="36.907"/><use xlink:href="#22" y="39.078"/><use xlink:href="#23" y="41.249"/><use xlink:href="#24" y="43.42"/><use xlink:href="#25" y="45.591"/><use xlink:href="#26" y="47.762"/><use xlink:href="#27" y="49.933"/><use xlink:href="#28" y="52.104"/><use xlink:href="#29" y="54.275"/><use xlink:href="#30" y="56.446"/><use xlink:href="#31" y="58.617"/><use xlink:href="#32" y="60.788"/><use xlink:href="#33" y="62.959"/><use xlink:href="#34" y="65.13"/><use xlink:href="#35" y="67.301"/><use xlink:href="#36" y="69.472"/><use xlink:href="#37" y="71.643"/><use xlink:href="#38" y="73.814"/><use xlink:href="#39" y="75.985"/><use xlink:href="#40" y="78.156"/><text y="81.997" class="h">:w</text><use xlink:href="#41" y="82.498"/></svg><svg x="1800"><use xlink:href="#a"/><use xlink:href="#b" x="2.996" y="80.302"/><use xlink:href="#4"/><use xlink:href="#5" y="2.171"/><use xlink:href="#6" y="4.342"/><use xlink:href="#7" y="6.513"/><use xlink:href="#8" y="8.684"/><use xlink:href="#9" y="10.855"/><use xlink:href="#10" y="13.026"/><use xlink:href="#11" y="15.197"/><use xlink:href="#12" y="17.368"/><use xlink:href="#13" y="19.539"/><use xlink:href="#14" y="21.71"/><use xlink:href="#15" y="23.881"/><use xlink:href="#16" y="26.052"/><use xlink:href="#17" y="28.223"/><use xlink:href="#18" y="30.394"/><use xlink:href="#19" y="32.565"/><use xlink:href="#20" y="34.736"/><use xlink:href="#21" y="36.907"/><use xlink:href="#22" y="39.078"/><use xlink:href="#23" y="41.249"/><use xlink:href="#24" y="43.42"/><use xlink:href="#25" y="45.591"/><use xlink:href="#26" y="47.762"/><use xlink:href="#27" y="49.933"/><use xlink:href="#28" y="52.104"/><use xlink:href="#29" y="54.275"/><use xlink:href="#30" y="56.446"/><use xlink:href="#31" y="58.617"/><use xlink:href="#32" y="60.788"/><use xlink:href="#33" y="62.959"/><use xlink:href="#34" y="65.13"/><use xlink:href="#35" y="67.301"/><use xlink:href="#36" y="69.472"/><use xlink:href="#37" y="71.643"/><use xlink:href="#38" y="73.814"/><use xlink:href="#39" y="75.985"/><use xlink:href="#40" y="78.156"/><use xlink:href="#42" y="80.327"/><use xlink:href="#41" y="82.498"/></svg><svg x="1900"><use xlink:href="#a"/><use xlink:href="#b" x="-.004" y="82.473"/><use xlink:href="#4"/><use xlink:href="#5" y="2.171"/><use xlink:href="#6" y="4.342"/><use xlink:href="#7" y="6.513"/><use xlink:href="#8" y="8.684"/><use xlink:href="#9" y="10.855"/><use xlink:href="#10" y="13.026"/><use xlink:href="#11" y="15.197"/><use xlink:href="#12" y="17.368"/><use xlink:href="#13" y="19.539"/><use xlink:href="#14" y="21.71"/><use xlink:href="#15" y="23.881"/><use xlink:href="#16" y="26.052"/><use xlink:href="#17" y="28.223"/><use xlink:href="#18" y="30.394"/><use xlink:href="#19" y="32.565"/><use xlink:href="#20" y="34.736"/><use xlink:href="#21" y="36.907"/><use xlink:href="#22" y="39.078"/><use xlink:href="#23" y="41.249"/><use xlink:href="#24" y="43.42"/><use xlink:href="#25" y="45.591"/><use xlink:href="#26" y="47.762"/><use xlink:href="#27" y="49.933"/><use xlink:href="#28" y="52.104"/><use xlink:href="#29" y="54.275"/><use xlink:href="#30" y="56.446"/><use xlink:href="#31" y="58.617"/><use xlink:href="#32" y="60.788"/><use xlink:href="#33" y="62.959"/><use xlink:href="#34" y="65.13"/><use xlink:href="#35" y="67.301"/><use xlink:href="#36" y="69.472"/><use xlink:href="#37" y="71.643"/><use xlink:href="#38" y="73.814"/><use xlink:href="#39" y="75.985"/><use xlink:href="#40" y="78.156"/><use xlink:href="#42" y="80.327"/><use xlink:href="#41" y="82.498"/></svg><svg x="2000"><use xlink:href="#a"/><use xlink:href="#b" x="12.996" y="2.146"/><use xlink:href="#1" y="2.171"/></svg><svg x="2100"><use xlink:href="#a"/><use xlink:href="#b" x="13.996" y="2.146"/><text y="3.841" class="f">~/p-agents</text><text x="11.022" y="3.841" class="g">❯</text><text x="13.026" y="3.841" class="h">p</text></svg><svg x="2200"><use xlink:href="#a"/><use xlink:href="#b" x="14.996" y="2.146"/><text y="3.841" class="f">~/p-agents</text><text x="11.022" y="3.841" class="g">❯</text><text x="13.026" y="3.841" class="h">py</text></svg><svg x="2300"><use xlink:href="#a"/><use xlink:href="#b" x="15.996" y="2.146"/><text y="3.841" class="f">~/p-agents</text><text x="11.022" y="3.841" class="g">❯</text><text x="13.026" y="3.841" class="h">pyt</text></svg><svg x="2400"><use xlink:href="#a"/><use xlink:href="#b" x="16.996" y="2.146"/><text y="3.841" class="f">~/p-agents</text><text x="11.022" y="3.841" class="g">❯</text><text x="13.026" y="3.841" class="h">pyth</text></svg><svg x="2500"><use xlink:href="#a"/><use xlink:href="#b" x="17.996" y="2.146"/><text y="3.841" class="f">~/p-agents</text><text x="11.022" y="3.841" class="g">❯</text><text x="13.026" y="3.841" class="h">pytho</text></svg><svg x="2600"><use xlink:href="#a"/><use xlink:href="#b" x="18.996" y="2.146"/><use xlink:href="#43" y="2.171"/></svg><svg x="2700"><use xlink:href="#a"/><use xlink:href="#b" x="19.996" y="2.146"/><use xlink:href="#43" y="2.171"/></svg><svg x="2800"><use xlink:href="#a"/><use xlink:href="#b" x="20.996" y="2.146"/><text y="3.841" class="f">~/p-agents</text><text x="11.022" y="3.841" class="g">❯</text><text x="13.026" y="3.841" class="h">python</text><text x="20.04" y="3.841" class="h">d</text></svg><svg x="2900"><use xlink:href="#a"/><use xlink:href="#b" x="21.996" y="2.146"/><text y="3.841" class="f">~/p-agents</text><text x="11.022" y="3.841" class="g">❯</text><text x="13.026" y="3.841" class="h">python</text><text x="20.04" y="3.841" class="h">de</text></svg><svg x="3000"><use xlink:href="#a"/><use xlink:href="#b" x="22.996" y="2.146"/><text y="3.841" class="f">~/p-agents</text><text x="11.022" y="3.841" class="g">❯</text><text x="13.026" y="3.841" class="h">python</text><text x="20.04" y="3.841" class="h">dem</text></svg><svg x="3100"><use xlink:href="#a"/><use xlink:href="#b" x="23.996" y="2.146"/><text y="3.841" class="f">~/p-agents</text><text x="11.022" y="3.841" class="g">❯</text><text x="13.026" y="3.841" class="h">python</text><text x="20.04" y="3.841" class="h">demo</text></svg><svg x="3200"><use xlink:href="#a"/><use xlink:href="#b" x="24.996" y="2.146"/><text y="3.841" class="f">~/p-agents</text><text x="11.022" y="3.841" class="g">❯</text><text x="13.026" y="3.841" class="h">python</text><text x="20.04" y="3.841" class="h">demo.</text></svg><svg x="3300"><use xlink:href="#a"/><use xlink:href="#b" x="25.996" y="2.146"/><text y="3.841" class="f">~/p-agents</text><text x="11.022" y="3.841" class="g">❯</text><text x="13.026" y="3.841" class="h">python</text><text x="20.04" y="3.841" class="h">demo.p</text></svg><svg x="3400"><use xlink:href="#a"/><use xlink:href="#b" x="26.996" y="2.146"/><use xlink:href="#44" y="2.171"/></svg><svg x="3500"><use xlink:href="#a"/><use xlink:href="#b" x="-.004" y="4.317"/><use xlink:href="#44" y="2.171"/></svg><svg x="3600"><use xlink:href="#a"/><use xlink:href="#b" x="-.004" y="6.488"/><use xlink:href="#44" y="2.171"/><use xlink:href="#45" y="4.342"/></svg><svg x="3700"><use xlink:href="#a"/><use xlink:href="#b" x="-.004" y="8.659"/><use xlink:href="#44" y="2.171"/><use xlink:href="#45" y="4.342"/><use xlink:href="#46" y="6.513"/></svg><svg x="3800"><use xlink:href="#a"/><use xlink:href="#b" x="-.004" y="10.83"/><use xlink:href="#44" y="2.171"/><use xlink:href="#45" y="4.342"/><use xlink:href="#46" y="6.513"/><use xlink:href="#47" y="8.684"/></svg><svg x="3900"><use xlink:href="#a"/><use xlink:href="#b" x="-.004" y="13.001"/><use xlink:href="#44" y="2.171"/><use xlink:href="#45" y="4.342"/><use xlink:href="#46" y="6.513"/><use xlink:href="#47" y="8.684"/><use xlink:href="#48" y="10.855"/></svg><svg x="4000"><use xlink:href="#a"/><use xlink:href="#b" x="-.004" y="15.172"/><use xlink:href="#44" y="2.171"/><use xlink:href="#45" y="4.342"/><use xlink:href="#46" y="6.513"/><use xlink:href="#47" y="8.684"/><use xlink:href="#48" y="10.855"/></svg><svg x="4100"><use xlink:href="#a"/><use xlink:href="#b" x="-.004" y="17.343"/><use xlink:href="#44" y="2.171"/><use xlink:href="#45" y="4.342"/><use xlink:href="#46" y="6.513"/><use xlink:href="#47" y="8.684"/><use xlink:href="#48" y="10.855"/><use xlink:href="#49" y="15.197"/></svg><svg x="4200"><use xlink:href="#a"/><use xlink:href="#b" x="12.996" y="19.514"/><use xlink:href="#44" y="2.171"/><use xlink:href="#45" y="4.342"/><use xlink:href="#46" y="6.513"/><use xlink:href="#47" y="8.684"/><use xlink:href="#48" y="10.855"/><use xlink:href="#49" y="15.197"/><use xlink:href="#1" y="19.539"/></svg></svg></g></g></svg></svg>