<svg xmlns="http://www.w3.org/2000/svg" xmlns:xlink="http://www.w3.org/1999/xlink" width="1000" height="667.88"><rect width="1000" height="667.88" rx="5" ry="5" class="a"/><svg y="0%" x="0%"><circle cx="20" cy="20" r="6" fill="#ff5f58"/><circle cx="40" cy="20" r="6" fill="#ffbd2e"/><circle cx="60" cy="20" r="6" fill="#18c132"/></svg><svg height="607.88" viewBox="0 0 96 60.788" width="960" x="15" xmlns="http://www.w3.org/2000/svg" xmlns:xlink="http://www.w3.org/1999/xlink" y="50"><style>@keyframes r{0%{transform:translateX(-96px)}8.1%{transform:translateX(-192px)}9.6%{transform:translateX(-288px)}11%{transform:translateX(-384px)}12.4%{transform:translateX(-480px)}13.8%{transform:translateX(-576px)}15.3%{transform:translateX(-672px)}16.7%{transform:translateX(-768px)}18.1%{transform:translateX(-864px)}19.6%{transform:translateX(-960px)}21%{transform:translateX(-1056px)}22.4%{transform:translateX(-1152px)}23.8%{transform:translateX(-1248px)}25.3%{transform:translateX(-1344px)}26.7%{transform:translateX(-1440px)}28.1%{transform:translateX(-1536px)}29.5%{transform:translateX(-1632px)}31%{transform:translateX(-1728px)}32.4%{transform:translateX(-1824px)}33.8%{transform:translateX(-1920px)}35.2%{transform:translateX(-2016px)}36.7%{transform:translateX(-2112px)}38.1%{transform:translateX(-2208px)}39.5%{transform:translateX(-2304px)}40.9%{transform:translateX(-2400px)}42.4%{transform:translateX(-2496px)}43.8%{transform:translateX(-2592px)}45.2%{transform:translateX(-2688px)}52.7%{transform:translateX(-2784px)}58.9%{transform:translateX(-2880px)}60.5%{transform:translateX(-2976px)}62.1%{transform:translateX(-3072px)}63.7%{transform:translateX(-3168px)}65.4%{transform:translateX(-3264px)}67%{transform:translateX(-3360px)}68.6%{transform:translateX(-3456px)}70.3%{transform:translateX(-3552px)}71.9%{transform:translateX(-3648px)}73.5%{transform:translateX(-3744px)}75.2%{transform:translateX(-3840px)}76.8%{transform:translateX(-3936px)}78.4%{transform:translateX(-4032px)}80%{transform:translateX(-4128px)}81.7%{transform:translateX(-4224px)}83.3%{transform:translateX(-4320px)}84.9%{transform:translateX(-4416px)}86.6%{transform:translateX(-4512px)}88.2%{transform:translateX(-4608px)}to{transform:translateX(-4704px)}}.a{fill:#282d35}.f{fill:#a8cc8c;font-weight:700}.f,.g,.h,.i{white-space:pre}.g{fill:#71bef2;font-weight:700}.h,.i{fill:#b9c0cb}.i{fill:#b9bfca;font-weight:700}.j,.k,.l,.m{fill:#a8cc8c;white-space:pre}.k,.l,.m{fill:#e88388}.l,.m{fill:#dbab79}.m{fill:#e88388;font-weight:700}</style><g font-family="Monaco,Consolas,Menlo,'Bitstream Vera Sans Mono','Powerline Symbols',monospace" font-size="1.67"><defs><symbol id="1"><text y="1.67" class="f">~/p-agents</text><text x="11.022" y="1.67" class="g">❯</text></symbol><symbol id="2"><text y="1.67" class="f">~/p-agents</text><text x="11.022" y="1.67" class="g">❯</text><text x="13.026" y="1.67" class="h">memlint</text></symbol><symbol id="3"><text y="1.67" class="f">~/p-agents</text><text x="11.022" y="1.67" class="g">❯</text><text x="13.026" y="1.67" class="h">memlint</text><text x="21.042" y="1.67" class="h">check</text></symbol><symbol id="4"><text y="1.67" class="f">~/p-agents</text><text x="11.022" y="1.67" class="g">❯</text><text x="13.026" y="1.67" class="h">memlint</text><text x="21.042" y="1.67" class="h">check</text><text x="27.054" y="1.67" class="h">memories.json</text></symbol><symbol id="5"><text y="1.67" class="h">┌─────────┬─────────────────────────────────────┬────────────┬─────┬───────┬─────────┬─────────┐</text></symbol><symbol id="6"><text x="95.19" y="1.67" class="h">│</text></symbol><symbol id="7"><text x="1.002" y="1.67" class="i">ID</text><text x="9.018" y="1.67" class="h">│</text><text x="11.022" y="1.67" class="i">Content</text><text x="47.094" y="1.67" class="h">│</text><text x="49.098" y="1.67" class="i">Category</text><text x="60.12" y="1.67" class="h">│</text><text x="62.124" y="1.67" class="i">Age</text><text x="66.132" y="1.67" class="h">│</text><text x="68.136" y="1.67" class="i">Score</text><text x="74.148" y="1.67" class="h">│</text><text x="76.152" y="1.67" class="i">Level</text><text x="84.168" y="1.67" class="h">│</text><text x="86.172" y="1.67" class="i">Action</text><text x="94.188" y="1.67" class="h">│</text></symbol><symbol id="8"><text x="95.19" y="1.67" class="h">├</text></symbol><symbol id="9"><text y="1.67" class="h">─────────┼─────────────────────────────────────┼────────────┼─────┼───────┼─────────┼─────────┤</text></symbol><symbol id="10"><text x="1.002" y="1.67" class="h">mem_001</text><text x="9.018" y="1.67" class="h">│</text><text x="11.022" y="1.67" class="h">User</text><text x="16.032" y="1.67" class="h">prefers</text><text x="24.048" y="1.67" class="h">Python</text><text x="31.062" y="1.67" class="h">over</text><text x="36.072" y="1.67" class="h">JavaScript</text><text x="47.094" y="1.67" class="h">│</text><text x="49.098" y="1.67" class="h">preference</text><text x="60.12" y="1.67" class="h">│</text><text x="64.128" y="1.67" class="h">5</text><text x="66.132" y="1.67" class="h">│</text><text x="69.138" y="1.67" class="h">0.17</text><text x="74.148" y="1.67" class="h">│</text><text x="76.152" y="1.67" class="j">FRESH</text><text x="84.168" y="1.67" class="h">│</text><text x="86.172" y="1.67" class="h">use</text><text x="94.188" y="1.67" class="h">│</text></symbol><symbol id="11"><text x="1.002" y="1.67" class="h">mem_002</text><text x="9.018" y="1.67" class="h">│</text><text x="11.022" y="1.67" class="h">User</text><text x="16.032" y="1.67" class="h">prefers</text><text x="24.048" y="1.67" class="h">dark</text><text x="29.058" y="1.67" class="h">mode</text><text x="34.068" y="1.67" class="h">in</text><text x="37.074" y="1.67" class="h">all</text><text x="47.094" y="1.67" class="h">│</text><text x="49.098" y="1.67" class="h">preference</text><text x="60.12" y="1.67" class="h">│</text><text x="62.124" y="1.67" class="h">129</text><text x="66.132" y="1.67" class="h">│</text><text x="69.138" y="1.67" class="h">0.79</text><text x="74.148" y="1.67" class="h">│</text><text x="76.152" y="1.67" class="k">STALE</text><text x="84.168" y="1.67" class="h">│</text><text x="86.172" y="1.67" class="h">flag</text><text x="94.188" y="1.67" class="h">│</text></symbol><symbol id="12"><text x="9.018" y="1.67" class="h">│</text><text x="11.022" y="1.67" class="h">editors</text><text x="47.094" y="1.67" class="h">│</text><text x="60.12" y="1.67" class="h">│</text><text x="66.132" y="1.67" class="h">│</text><text x="74.148" y="1.67" class="h">│</text><text x="84.168" y="1.67" class="h">│</text><text x="94.188" y="1.67" class="h">│</text></symbol><symbol id="13"><text x="1.002" y="1.67" class="h">mem_003</text><text x="9.018" y="1.67" class="h">│</text><text x="11.022" y="1.67" class="h">User</text><text x="16.032" y="1.67" class="h">is</text><text x="19.038" y="1.67" class="h">based</text><text x="25.05" y="1.67" class="h">in</text><text x="28.056" y="1.67" class="h">New</text><text x="32.064" y="1.67" class="h">Delhi</text><text x="38.076" y="1.67" class="h">for</text><text x="42.084" y="1.67" class="h">work</text><text x="47.094" y="1.67" class="h">│</text><text x="49.098" y="1.67" class="h">location</text><text x="60.12" y="1.67" class="h">│</text><text x="62.124" y="1.67" class="h">199</text><text x="66.132" y="1.67" class="h">│</text><text x="69.138" y="1.67" class="h">0.40</text><text x="74.148" y="1.67" class="h">│</text><text x="76.152" y="1.67" class="l">AGING</text><text x="84.168" y="1.67" class="h">│</text><text x="86.172" y="1.67" class="h">verify</text><text x="94.188" y="1.67" class="h">│</text></symbol><symbol id="14"><text x="1.002" y="1.67" class="h">mem_004</text><text x="9.018" y="1.67" class="h">│</text><text x="11.022" y="1.67" class="h">User</text><text x="16.032" y="1.67" class="h">works</text><text x="22.044" y="1.67" class="h">at</text><text x="25.05" y="1.67" class="h">Acme</text><text x="30.06" y="1.67" class="h">Corp</text><text x="35.07" y="1.67" class="h">as</text><text x="38.076" y="1.67" class="h">a</text><text x="40.08" y="1.67" class="h">senior</text><text x="47.094" y="1.67" class="h">│</text><text x="49.098" y="1.67" class="h">employment</text><text x="60.12" y="1.67" class="h">│</text><text x="62.124" y="1.67" class="h">279</text><text x="66.132" y="1.67" class="h">│</text><text x="69.138" y="1.67" class="h">0.70</text><text x="74.148" y="1.67" class="h">│</text><text x="76.152" y="1.67" class="k">STALE</text><text x="84.168" y="1.67" class="h">│</text><text x="86.172" y="1.67" class="h">flag</text><text x="94.188" y="1.67" class="h">│</text></symbol><symbol id="15"><text x="9.018" y="1.67" class="h">│</text><text x="11.022" y="1.67" class="h">consultant</text><text x="47.094" y="1.67" class="h">│</text><text x="60.12" y="1.67" class="h">│</text><text x="66.132" y="1.67" class="h">│</text><text x="74.148" y="1.67" class="h">│</text><text x="84.168" y="1.67" class="h">│</text><text x="94.188" y="1.67" class="h">│</text></symbol><symbol id="16"><text x="1.002" y="1.67" class="h">mem_005</text><text x="9.018" y="1.67" class="h">│</text><text x="11.022" y="1.67" class="h">User</text><text x="16.032" y="1.67" class="h">is</text><text x="19.038" y="1.67" class="h">building</text><text x="28.056" y="1.67" class="h">pract-agents</text><text x="41.082" y="1.67" class="h">using</text><text x="47.094" y="1.67" class="h">│</text><text x="49.098" y="1.67" class="h">project</text><text x="60.12" y="1.67" class="h">│</text><text x="62.124" y="1.67" class="h">119</text><text x="66.132" y="1.67" class="h">│</text><text x="69.138" y="1.67" class="h">0.71</text><text x="74.148" y="1.67" class="h">│</text><text x="76.152" y="1.67" class="k">STALE</text><text x="84.168" y="1.67" class="h">│</text><text x="86.172" y="1.67" class="h">flag</text><text x="94.188" y="1.67" class="h">│</text></symbol><symbol id="17"><text x="9.018" y="1.67" class="h">│</text><text x="11.022" y="1.67" class="h">LangGraph</text><text x="21.042" y="1.67" class="h">framework</text><text x="47.094" y="1.67" class="h">│</text><text x="60.12" y="1.67" class="h">│</text><text x="66.132" y="1.67" class="h">│</text><text x="74.148" y="1.67" class="h">│</text><text x="84.168" y="1.67" class="h">│</text><text x="94.188" y="1.67" class="h">│</text></symbol><symbol id="18"><text x="1.002" y="1.67" class="h">mem_006</text><text x="9.018" y="1.67" class="h">│</text><text x="11.022" y="1.67" class="h">User</text><text x="16.032" y="1.67" class="h">debugged</text><text x="25.05" y="1.67" class="h">a</text><text x="27.054" y="1.67" class="h">LangGraph</text><text x="37.074" y="1.67" class="h">memory</text><text x="47.094" y="1.67" class="h">│</text><text x="49.098" y="1.67" class="h">episodic</text><text x="60.12" y="1.67" class="h">│</text><text x="63.126" y="1.67" class="h">30</text><text x="66.132" y="1.67" class="h">│</text><text x="69.138" y="1.67" class="h">1.00</text><text x="74.148" y="1.67" class="h">│</text><text x="76.152" y="1.67" class="m">EXPIRED</text><text x="84.168" y="1.67" class="h">│</text><text x="86.172" y="1.67" class="h">discard</text><text x="94.188" y="1.67" class="h">│</text></symbol><symbol id="19"><text x="9.018" y="1.67" class="h">│</text><text x="11.022" y="1.67" class="h">issue</text><text x="17.034" y="1.67" class="h">this</text><text x="22.044" y="1.67" class="h">morning</text><text x="47.094" y="1.67" class="h">│</text><text x="60.12" y="1.67" class="h">│</text><text x="66.132" y="1.67" class="h">│</text><text x="74.148" y="1.67" class="h">│</text><text x="84.168" y="1.67" class="h">│</text><text x="94.188" y="1.67" class="h">│</text></symbol><symbol id="20"><text x="1.002" y="1.67" class="h">mem_007</text><text x="9.018" y="1.67" class="h">│</text><text x="11.022" y="1.67" class="h">User</text><text x="16.032" y="1.67" class="h">lives</text><text x="22.044" y="1.67" class="h">in</text><text x="25.05" y="1.67" class="h">Delhi</text><text x="47.094" y="1.67" class="h">│</text><text x="49.098" y="1.67" class="h">location</text><text x="60.12" y="1.67" class="h">│</text><text x="62.124" y="1.67" class="h">399</text><text x="66.132" y="1.67" class="h">│</text><text x="69.138" y="1.67" class="h">1.00</text><text x="74.148" y="1.67" class="h">│</text><text x="76.152" y="1.67" class="m">EXPIRED</text><text x="84.168" y="1.67" class="h">│</text><text x="86.172" y="1.67" class="h">discard</text><text x="94.188" y="1.67" class="h">│</text></symbol><symbol id="21"><text x="1.002" y="1.67" class="h">mem_008</text><text x="9.018" y="1.67" class="h">│</text><text x="11.022" y="1.67" class="h">User</text><text x="16.032" y="1.67" class="h">lives</text><text x="22.044" y="1.67" class="h">in</text><text x="25.05" y="1.67" class="h">Mumbai</text><text x="32.064" y="1.67" class="h">now</text><text x="47.094" y="1.67" class="h">│</text><text x="49.098" y="1.67" class="h">location</text><text x="60.12" y="1.67" class="h">│</text><text x="63.126" y="1.67" class="h">49</text><text x="66.132" y="1.67" class="h">│</text><text x="69.138" y="1.67" class="h">0.50</text><text x="74.148" y="1.67" class="h">│</text><text x="76.152" y="1.67" class="l">AGING</text><text x="84.168" y="1.67" class="h">│</text><text x="86.172" y="1.67" class="h">verify</text><text x="94.188" y="1.67" class="h">│</text></symbol><symbol id="22"><text x="95.19" y="1.67" class="h">└</text></symbol><symbol id="23"><text y="1.67" class="h">─────────┴─────────────────────────────────────┴────────────┴─────┴───────┴─────────┴─────────┘</text></symbol><symbol id="24"><text x="95.19" y="1.67" class="h">C</text></symbol><symbol id="25"><text y="1.67" class="h">hecked</text><text x="7.014" y="1.67" style="white-space:pre" fill="#66c2cd" font-weight="700">8</text><text x="9.018" y="1.67" class="h">facts:</text><text x="16.032" y="1.67" class="f">1</text><text x="18.036" y="1.67" class="j">fresh</text><text x="23.046" y="1.67" class="h">,</text><text x="25.05" y="1.67" style="white-space:pre" fill="#dbab79" font-weight="700">2</text><text x="27.054" y="1.67" class="l">aging</text><text x="32.064" y="1.67" class="h">,</text><text x="34.068" y="1.67" class="m">3</text><text x="36.072" y="1.67" class="k">stale</text><text x="41.082" y="1.67" class="h">,</text><text x="43.086" y="1.67" class="m">2</text><text x="45.09" y="1.67" class="m">expired</text></symbol><symbol id="a"><path fill="transparent" d="M0 0h96v29H0z"/></symbol><symbol id="b"><path fill="#6f7683" d="M0 0h1.102v2.171H0z"/></symbol></defs><path class="a" d="M0 0h96v60.788H0z"/><g style="animation-duration:4.91s;animation-iteration-count:infinite;animation-name:r;animation-timing-function:steps(1,end)"><svg width="4800"><svg><use xlink:href="#a"/><use xlink:href="#b" x="-.004"/></svg><svg x="96"><use xlink:href="#a"/><use xlink:href="#b" x="12.996" y="2.146"/><use xlink:href="#1" y="2.171"/></svg><svg x="192"><use xlink:href="#a"/><use xlink:href="#b" x="13.996" y="2.146"/><text y="3.841" class="f">~/p-agents</text><text x="11.022" y="3.841" class="g">❯</text><text x="13.026" y="3.841" class="h">m</text></svg><svg x="288"><use xlink:href="#a"/><use xlink:href="#b" x="14.996" y="2.146"/><text y="3.841" class="f">~/p-agents</text><text x="11.022" y="3.841" class="g">❯</text><text x="13.026" y="3.841" class="h">me</text></svg><svg x="384"><use xlink:href="#a"/><use xlink:href="#b" x="15.996" y="2.146"/><text y="3.841" class="f">~/p-agents</text><text x="11.022" y="3.841" class="g">❯</text><text x="13.026" y="3.841" class="h">mem</text></svg><svg x="480"><use xlink:href="#a"/><use xlink:href="#b" x="16.996" y="2.146"/><text y="3.841" class="f">~/p-agents</text><text x="11.022" y="3.841" class="g">❯</text><text x="13.026" y="3.841" class="h">meml</text></svg><svg x="576"><use xlink:href="#a"/><use xlink:href="#b" x="17.996" y="2.146"/><text y="3.841" class="f">~/p-agents</text><text x="11.022" y="3.841" class="g">❯</text><text x="13.026" y="3.841" class="h">memli</text></svg><svg x="672"><use xlink:href="#a"/><use xlink:href="#b" x="18.996" y="2.146"/><text y="3.841" class="f">~/p-agents</text><text x="11.022" y="3.841" class="g">❯</text><text x="13.026" y="3.841" class="h">memlin</text></svg><svg x="768"><use xlink:href="#a"/><use xlink:href="#b" x="19.996" y="2.146"/><use xlink:href="#2" y="2.171"/></svg><svg x="864"><use xlink:href="#a"/><use xlink:href="#b" x="20.996" y="2.146"/><use xlink:href="#2" y="2.171"/></svg><svg x="960"><use xlink:href="#a"/><use xlink:href="#b" x="21.996" y="2.146"/><text y="3.841" class="f">~/p-agents</text><text x="11.022" y="3.841" class="g">❯</text><text x="13.026" y="3.841" class="h">memlint</text><text x="21.042" y="3.841" class="h">c</text></svg><svg x="1056"><use xlink:href="#a"/><use xlink:href="#b" x="22.996" y="2.146"/><text y="3.841" class="f">~/p-agents</text><text x="11.022" y="3.841" class="g">❯</text><text x="13.026" y="3.841" class="h">memlint</text><text x="21.042" y="3.841" class="h">ch</text></svg><svg x="1152"><use xlink:href="#a"/><use xlink:href="#b" x="23.996" y="2.146"/><text y="3.841" class="f">~/p-agents</text><text x="11.022" y="3.841" class="g">❯</text><text x="13.026" y="3.841" class="h">memlint</text><text x="21.042" y="3.841" class="h">che</text></svg><svg x="1248"><use xlink:href="#a"/><use xlink:href="#b" x="24.996" y="2.146"/><text y="3.841" class="f">~/p-agents</text><text x="11.022" y="3.841" class="g">❯</text><text x="13.026" y="3.841" class="h">memlint</text><text x="21.042" y="3.841" class="h">chec</text></svg><svg x="1344"><use xlink:href="#a"/><use xlink:href="#b" x="25.996" y="2.146"/><use xlink:href="#3" y="2.171"/></svg><svg x="1440"><use xlink:href="#a"/><use xlink:href="#b" x="26.996" y="2.146"/><use xlink:href="#3" y="2.171"/></svg><svg x="1536"><use xlink:href="#a"/><use xlink:href="#b" x="27.996" y="2.146"/><text y="3.841" class="f">~/p-agents</text><text x="11.022" y="3.841" class="g">❯</text><text x="13.026" y="3.841" class="h">memlint</text><text x="21.042" y="3.841" class="h">check</text><text x="27.054" y="3.841" class="h">m</text></svg><svg x="1632"><use xlink:href="#a"/><use xlink:href="#b" x="28.996" y="2.146"/><text y="3.841" class="f">~/p-agents</text><text x="11.022" y="3.841" class="g">❯</text><text x="13.026" y="3.841" class="h">memlint</text><text x="21.042" y="3.841" class="h">check</text><text x="27.054" y="3.841" class="h">me</text></svg><svg x="1728"><use xlink:href="#a"/><use xlink:href="#b" x="29.996" y="2.146"/><text y="3.841" class="f">~/p-agents</text><text x="11.022" y="3.841" class="g">❯</text><text x="13.026" y="3.841" class="h">memlint</text><text x="21.042" y="3.841" class="h">check</text><text x="27.054" y="3.841" class="h">mem</text></svg><svg x="1824"><use xlink:href="#a"/><use xlink:href="#b" x="30.996" y="2.146"/><text y="3.841" class="f">~/p-agents</text><text x="11.022" y="3.841" class="g">❯</text><text x="13.026" y="3.841" class="h">memlint</text><text x="21.042" y="3.841" class="h">check</text><text x="27.054" y="3.841" class="h">memo</text></svg><svg x="1920"><use xlink:href="#a"/><use xlink:href="#b" x="31.996" y="2.146"/><text y="3.841" class="f">~/p-agents</text><text x="11.022" y="3.841" class="g">❯</text><text x="13.026" y="3.841" class="h">memlint</text><text x="21.042" y="3.841" class="h">check</text><text x="27.054" y="3.841" class="h">memor</text></svg><svg x="2016"><use xlink:href="#a"/><use xlink:href="#b" x="32.996" y="2.146"/><text y="3.841" class="f">~/p-agents</text><text x="11.022" y="3.841" class="g">❯</text><text x="13.026" y="3.841" class="h">memlint</text><text x="21.042" y="3.841" class="h">check</text><text x="27.054" y="3.841" class="h">memori</text></svg><svg x="2112"><use xlink:href="#a"/><use xlink:href="#b" x="33.996" y="2.146"/><text y="3.841" class="f">~/p-agents</text><text x="11.022" y="3.841" class="g">❯</text><text x="13.026" y="3.841" class="h">memlint</text><text x="21.042" y="3.841" class="h">check</text><text x="27.054" y="3.841" class="h">memorie</text></svg><svg x="2208"><use xlink:href="#a"/><use xlink:href="#b" x="34.996" y="2.146"/><text y="3.841" class="f">~/p-agents</text><text x="11.022" y="3.841" class="g">❯</text><text x="13.026" y="3.841" class="h">memlint</text><text x="21.042" y="3.841" class="h">check</text><text x="27.054" y="3.841" class="h">memories</text></svg><svg x="2304"><use xlink:href="#a"/><use xlink:href="#b" x="35.996" y="2.146"/><text y="3.841" class="f">~/p-agents</text><text x="11.022" y="3.841" class="g">❯</text><text x="13.026" y="3.841" class="h">memlint</text><text x="21.042" y="3.841" class="h">check</text><text x="27.054" y="3.841" class="h">memories.</text></svg><svg x="2400"><use xlink:href="#a"/><use xlink:href="#b" x="36.996" y="2.146"/><text y="3.841" class="f">~/p-agents</text><text x="11.022" y="3.841" class="g">❯</text><text x="13.026" y="3.841" class="h">memlint</text><text x="21.042" y="3.841" class="h">check</text><text x="27.054" y="3.841" class="h">memories.j</text></svg><svg x="2496"><use xlink:href="#a"/><use xlink:href="#b" x="37.996" y="2.146"/><text y="3.841" class="f">~/p-agents</text><text x="11.022" y="3.841" class="g">❯</text><text x="13.026" y="3.841" class="h">memlint</text><text x="21.042" y="3.841" class="h">check</text><text x="27.054" y="3.841" class="h">memories.js</text></svg><svg x="2592"><use xlink:href="#a"/><use xlink:href="#b" x="38.996" y="2.146"/><text y="3.841" class="f">~/p-agents</text><text x="11.022" y="3.841" class="g">❯</text><text x="13.026" y="3.841" class="h">memlint</text><text x="21.042" y="3.841" class="h">check</text><text x="27.054" y="3.841" class="h">memories.jso</text></svg><svg x="2688"><use xlink:href="#a"/><use xlink:href="#b" x="39.996" y="2.146"/><use xlink:href="#4" y="2.171"/></svg><svg x="2784"><use xlink:href="#a"/><use xlink:href="#b" x="-.004" y="4.317"/><use xlink:href="#4" y="2.171"/></svg><svg x="2880"><use xlink:href="#a"/><use xlink:href="#b" x="-.004" y="6.488"/><use xlink:href="#4" y="2.171"/></svg><svg x="2976"><use xlink:href="#a"/><use xlink:href="#b" x="94.996" y="8.659"/><use xlink:href="#4" y="2.171"/><use xlink:href="#5" y="6.513"/></svg><svg x="3072"><use xlink:href="#a"/><use xlink:href="#b" x="94.996" y="13.001"/><use xlink:href="#4" y="2.171"/><use xlink:href="#5" y="6.513"/><use xlink:href="#6" y="8.684"/><use xlink:href="#7" y="10.855"/></svg><svg x="3168"><use xlink:href="#a"/><use xlink:href="#b" x="94.996" y="17.343"/><use xlink:href="#4" y="2.171"/><use xlink:href="#5" y="6.513"/><use xlink:href="#6" y="8.684"/><use xlink:href="#7" y="10.855"/><use xlink:href="#8" y="13.026"/><use xlink:href="#9" y="15.197"/></svg><svg x="3264"><use xlink:href="#a"/><use xlink:href="#b" x="94.996" y="21.685"/><use xlink:href="#4" y="2.171"/><use xlink:href="#5" y="6.513"/><use xlink:href="#6" y="8.684"/><use xlink:href="#7" y="10.855"/><use xlink:href="#8" y="13.026"/><use xlink:href="#9" y="15.197"/><use xlink:href="#6" y="17.368"/><use xlink:href="#10" y="19.539"/></svg><svg x="3360"><use xlink:href="#a"/><use xlink:href="#b" x="94.996" y="26.027"/><use xlink:href="#4" y="2.171"/><use xlink:href="#5" y="6.513"/><use xlink:href="#6" y="8.684"/><use xlink:href="#7" y="10.855"/><use xlink:href="#8" y="13.026"/><use xlink:href="#9" y="15.197"/><use xlink:href="#6" y="17.368"/><use xlink:href="#10" y="19.539"/><use xlink:href="#6" y="21.71"/><use xlink:href="#11" y="23.881"/></svg><svg x="3456"><use xlink:href="#a"/><use xlink:href="#b" x="94.996" y="30.369"/><use xlink:href="#4" y="2.171"/><use xlink:href="#5" y="6.513"/><use xlink:href="#6" y="8.684"/><use xlink:href="#7" y="10.855"/><use xlink:href="#8" y="13.026"/><use xlink:href="#9" y="15.197"/><use xlink:href="#6" y="17.368"/><use xlink:href="#10" y="19.539"/><use xlink:href="#6" y="21.71"/><use xlink:href="#11" y="23.881"/><use xlink:href="#6" y="26.052"/><use xlink:href="#12" y="28.223"/></svg><svg x="3552"><use xlink:href="#a"/><use xlink:href="#b" x="94.996" y="34.711"/><use xlink:href="#4" y="2.171"/><use xlink:href="#5" y="6.513"/><use xlink:href="#6" y="8.684"/><use xlink:href="#7" y="10.855"/><use xlink:href="#8" y="13.026"/><use xlink:href="#9" y="15.197"/><use xlink:href="#6" y="17.368"/><use xlink:href="#10" y="19.539"/><use xlink:href="#6" y="21.71"/><use xlink:href="#11" y="23.881"/><use xlink:href="#6" y="26.052"/><use xlink:href="#12" y="28.223"/><use xlink:href="#6" y="30.394"/><use xlink:href="#13" y="32.565"/></svg><svg x="3648"><use xlink:href="#a"/><use xlink:href="#b" x="94.996" y="39.053"/><use xlink:href="#4" y="2.171"/><use xlink:href="#5" y="6.513"/><use xlink:href="#6" y="8.684"/><use xlink:href="#7" y="10.855"/><use xlink:href="#8" y="13.026"/><use xlink:href="#9" y="15.197"/><use xlink:href="#6" y="17.368"/><use xlink:href="#10" y="19.539"/><use xlink:href="#6" y="21.71"/><use xlink:href="#11" y="23.881"/><use xlink:href="#6" y="26.052"/><use xlink:href="#12" y="28.223"/><use xlink:href="#6" y="30.394"/><use xlink:href="#13" y="32.565"/><use xlink:href="#6" y="34.736"/><use xlink:href="#14" y="36.907"/></svg><svg x="3744"><use xlink:href="#a"/><use xlink:href="#b" x="94.996" y="43.395"/><use xlink:href="#4" y="2.171"/><use xlink:href="#5" y="6.513"/><use xlink:href="#6" y="8.684"/><use xlink:href="#7" y="10.855"/><use xlink:href="#8" y="13.026"/><use xlink:href="#9" y="15.197"/><use xlink:href="#6" y="17.368"/><use xlink:href="#10" y="19.539"/><use xlink:href="#6" y="21.71"/><use xlink:href="#11" y="23.881"/><use xlink:href="#6" y="26.052"/><use xlink:href="#12" y="28.223"/><use xlink:href="#6" y="30.394"/><use xlink:href="#13" y="32.565"/><use xlink:href="#6" y="34.736"/><use xlink:href="#14" y="36.907"/><use xlink:href="#6" y="39.078"/><use xlink:href="#15" y="41.249"/></svg><svg x="3840"><use xlink:href="#a"/><use xlink:href="#b" x="94.996" y="47.737"/><use xlink:href="#4" y="2.171"/><use xlink:href="#5" y="6.513"/><use xlink:href="#6" y="8.684"/><use xlink:href="#7" y="10.855"/><use xlink:href="#8" y="13.026"/><use xlink:href="#9" y="15.197"/><use xlink:href="#6" y="17.368"/><use xlink:href="#10" y="19.539"/><use xlink:href="#6" y="21.71"/><use xlink:href="#11" y="23.881"/><use xlink:href="#6" y="26.052"/><use xlink:href="#12" y="28.223"/><use xlink:href="#6" y="30.394"/><use xlink:href="#13" y="32.565"/><use xlink:href="#6" y="34.736"/><use xlink:href="#14" y="36.907"/><use xlink:href="#6" y="39.078"/><use xlink:href="#15" y="41.249"/><use xlink:href="#6" y="43.42"/><use xlink:href="#16" y="45.591"/></svg><svg x="3936"><use xlink:href="#a"/><use xlink:href="#b" x="94.996" y="52.079"/><use xlink:href="#4" y="2.171"/><use xlink:href="#5" y="6.513"/><use xlink:href="#6" y="8.684"/><use xlink:href="#7" y="10.855"/><use xlink:href="#8" y="13.026"/><use xlink:href="#9" y="15.197"/><use xlink:href="#6" y="17.368"/><use xlink:href="#10" y="19.539"/><use xlink:href="#6" y="21.71"/><use xlink:href="#11" y="23.881"/><use xlink:href="#6" y="26.052"/><use xlink:href="#12" y="28.223"/><use xlink:href="#6" y="30.394"/><use xlink:href="#13" y="32.565"/><use xlink:href="#6" y="34.736"/><use xlink:href="#14" y="36.907"/><use xlink:href="#6" y="39.078"/><use xlink:href="#15" y="41.249"/><use xlink:href="#6" y="43.42"/><use xlink:href="#16" y="45.591"/><use xlink:href="#6" y="47.762"/><use xlink:href="#17" y="49.933"/></svg><svg x="4032"><use xlink:href="#a"/><use xlink:href="#b" x="94.996" y="56.421"/><use xlink:href="#4" y="2.171"/><use xlink:href="#5" y="6.513"/><use xlink:href="#6" y="8.684"/><use xlink:href="#7" y="10.855"/><use xlink:href="#8" y="13.026"/><use xlink:href="#9" y="15.197"/><use xlink:href="#6" y="17.368"/><use xlink:href="#10" y="19.539"/><use xlink:href="#6" y="21.71"/><use xlink:href="#11" y="23.881"/><use xlink:href="#6" y="26.052"/><use xlink:href="#12" y="28.223"/><use xlink:href="#6" y="30.394"/><use xlink:href="#13" y="32.565"/><use xlink:href="#6" y="34.736"/><use xlink:href="#14" y="36.907"/><use xlink:href="#6" y="39.078"/><use xlink:href="#15" y="41.249"/><use xlink:href="#6" y="43.42"/><use xlink:href="#16" y="45.591"/><use xlink:href="#6" y="47.762"/><use xlink:href="#17" y="49.933"/><use xlink:href="#6" y="52.104"/><use xlink:href="#18" y="54.275"/></svg><svg x="4128"><use xlink:href="#a"/><use xlink:href="#b" x="94.996" y="60.763"/><use xlink:href="#4" y="2.171"/><use xlink:href="#5" y="6.513"/><use xlink:href="#6" y="8.684"/><use xlink:href="#7" y="10.855"/><use xlink:href="#8" y="13.026"/><use xlink:href="#9" y="15.197"/><use xlink:href="#6" y="17.368"/><use xlink:href="#10" y="19.539"/><use xlink:href="#6" y="21.71"/><use xlink:href="#11" y="23.881"/><use xlink:href="#6" y="26.052"/><use xlink:href="#12" y="28.223"/><use xlink:href="#6" y="30.394"/><use xlink:href="#13" y="32.565"/><use xlink:href="#6" y="34.736"/><use xlink:href="#14" y="36.907"/><use xlink:href="#6" y="39.078"/><use xlink:href="#15" y="41.249"/><use xlink:href="#6" y="43.42"/><use xlink:href="#16" y="45.591"/><use xlink:href="#6" y="47.762"/><use xlink:href="#17" y="49.933"/><use xlink:href="#6" y="52.104"/><use xlink:href="#18" y="54.275"/><use xlink:href="#6" y="56.446"/><use xlink:href="#19" y="58.617"/></svg><svg x="4224"><use xlink:href="#a"/><use xlink:href="#b" x="94.996" y="60.763"/><use xlink:href="#5" y="2.171"/><use xlink:href="#6" y="4.342"/><use xlink:href="#7" y="6.513"/><use xlink:href="#8" y="8.684"/><use xlink:href="#9" y="10.855"/><use xlink:href="#6" y="13.026"/><use xlink:href="#10" y="15.197"/><use xlink:href="#6" y="17.368"/><use xlink:href="#11" y="19.539"/><use xlink:href="#6" y="21.71"/><use xlink:href="#12" y="23.881"/><use xlink:href="#6" y="26.052"/><use xlink:href="#13" y="28.223"/><use xlink:href="#6" y="30.394"/><use xlink:href="#14" y="32.565"/><use xlink:href="#6" y="34.736"/><use xlink:href="#15" y="36.907"/><use xlink:href="#6" y="39.078"/><use xlink:href="#16" y="41.249"/><use xlink:href="#6" y="43.42"/><use xlink:href="#17" y="45.591"/><use xlink:href="#6" y="47.762"/><use xlink:href="#18" y="49.933"/><use xlink:href="#6" y="52.104"/><use xlink:href="#19" y="54.275"/><use xlink:href="#6" y="56.446"/><use xlink:href="#20" y="58.617"/></svg><svg x="4320"><use xlink:href="#a"/><use xlink:href="#b" x="94.996" y="60.763"/><use xlink:href="#6"/><use xlink:href="#7" y="2.171"/><use xlink:href="#8" y="4.342"/><use xlink:href="#9" y="6.513"/><use xlink:href="#6" y="8.684"/><use xlink:href="#10" y="10.855"/><use xlink:href="#6" y="13.026"/><use xlink:href="#11" y="15.197"/><use xlink:href="#6" y="17.368"/><use xlink:href="#12" y="19.539"/><use xlink:href="#6" y="21.71"/><use xlink:href="#13" y="23.881"/><use xlink:href="#6" y="26.052"/><use xlink:href="#14" y="28.223"/><use xlink:href="#6" y="30.394"/><use xlink:href="#15" y="32.565"/><use xlink:href="#6" y="34.736"/><use xlink:href="#16" y="36.907"/><use xlink:href="#6" y="39.078"/><use xlink:href="#17" y="41.249"/><use xlink:href="#6" y="43.42"/><use xlink:href="#18" y="45.591"/><use xlink:href="#6" y="47.762"/><use xlink:href="#19" y="49.933"/><use xlink:href="#6" y="52.104"/><use xlink:href="#20" y="54.275"/><use xlink:href="#6" y="56.446"/><use xlink:href="#21" y="58.617"/></svg><svg x="4416"><use xlink:href="#a"/><use xlink:href="#b" x="94.996" y="60.763"/><use xlink:href="#8"/><use xlink:href="#9" y="2.171"/><use xlink:href="#6" y="4.342"/><use xlink:href="#10" y="6.513"/><use xlink:href="#6" y="8.684"/><use xlink:href="#11" y="10.855"/><use xlink:href="#6" y="13.026"/><use xlink:href="#12" y="15.197"/><use xlink:href="#6" y="17.368"/><use xlink:href="#13" y="19.539"/><use xlink:href="#6" y="21.71"/><use xlink:href="#14" y="23.881"/><use xlink:href="#6" y="26.052"/><use xlink:href="#15" y="28.223"/><use xlink:href="#6" y="30.394"/><use xlink:href="#16" y="32.565"/><use xlink:href="#6" y="34.736"/><use xlink:href="#17" y="36.907"/><use xlink:href="#6" y="39.078"/><use xlink:href="#18" y="41.249"/><use xlink:href="#6" y="43.42"/><use xlink:href="#19" y="45.591"/><use xlink:href="#6" y="47.762"/><use xlink:href="#20" y="49.933"/><use xlink:href="#6" y="52.104"/><use xlink:href="#21" y="54.275"/><use xlink:href="#22" y="56.446"/><use xlink:href="#23" y="58.617"/></svg><svg x="4512"><use xlink:href="#a"/><use xlink:href="#b" x="94.996" y="60.763"/><use xlink:href="#9"/><use xlink:href="#6" y="2.171"/><use xlink:href="#10" y="4.342"/><use xlink:href="#6" y="6.513"/><use xlink:href="#11" y="8.684"/><use xlink:href="#6" y="10.855"/><use xlink:href="#12" y="13.026"/><use xlink:href="#6" y="15.197"/><use xlink:href="#13" y="17.368"/><use xlink:href="#6" y="19.539"/><use xlink:href="#14" y="21.71"/><use xlink:href="#6" y="23.881"/><use xlink:href="#15" y="26.052"/><use xlink:href="#6" y="28.223"/><use xlink:href="#16" y="30.394"/><use xlink:href="#6" y="32.565"/><use xlink:href="#17" y="34.736"/><use xlink:href="#6" y="36.907"/><use xlink:href="#18" y="39.078"/><use xlink:href="#6" y="41.249"/><use xlink:href="#19" y="43.42"/><use xlink:href="#6" y="45.591"/><use xlink:href="#20" y="47.762"/><use xlink:href="#6" y="49.933"/><use xlink:href="#21" y="52.104"/><use xlink:href="#22" y="54.275"/><use xlink:href="#23" y="56.446"/></svg><svg x="4608"><use xlink:href="#a"/><use xlink:href="#b" x="51.996" y="60.763"/><use xlink:href="#10"/><use xlink:href="#6" y="2.171"/><use xlink:href="#11" y="4.342"/><use xlink:href="#6" y="6.513"/><use xlink:href="#12" y="8.684"/><use xlink:href="#6" y="10.855"/><use xlink:href="#13" y="13.026"/><use xlink:href="#6" y="15.197"/><use xlink:href="#14" y="17.368"/><use xlink:href="#6" y="19.539"/><use xlink:href="#15" y="21.71"/><use xlink:href="#6" y="23.881"/><use xlink:href="#16" y="26.052"/><use xlink:href="#6" y="28.223"/><use xlink:href="#17" y="30.394"/><use xlink:href="#6" y="32.565"/><use xlink:href="#18" y="34.736"/><use xlink:href="#6" y="36.907"/><use xlink:href="#19" y="39.078"/><use xlink:href="#6" y="41.249"/><use xlink:href="#20" y="43.42"/><use xlink:href="#6" y="45.591"/><use xlink:href="#21" y="47.762"/><use xlink:href="#22" y="49.933"/><use xlink:href="#23" y="52.104"/><use xlink:href="#24" y="56.446"/><use xlink:href="#25" y="58.617"/></svg><svg x="4704"><use xlink:href="#a"/><use xlink:href="#b" x="12.996" y="60.763"/><use xlink:href="#6"/><use xlink:href="#11" y="2.171"/><use xlink:href="#6" y="4.342"/><use xlink:href="#12" y="6.513"/><use xlink:href="#6" y="8.684"/><use xlink:href="#13" y="10.855"/><use xlink:href="#6" y="13.026"/><use xlink:href="#14" y="15.197"/><use xlink:href="#6" y="17.368"/><use xlink:href="#15" y="19.539"/><use xlink:href="#6" y="21.71"/><use xlink:href="#16" y="23.881"/><use xlink:href="#6" y="26.052"/><use xlink:href="#17" y="28.223"/><use xlink:href="#6" y="30.394"/><use xlink:href="#18" y="32.565"/><use xlink:href="#6" y="34.736"/><use xlink:href="#19" y="36.907"/><use xlink:href="#6" y="39.078"/><use xlink:href="#20" y="41.249"/><use xlink:href="#6" y="43.42"/><use xlink:href="#21" y="45.591"/><use xlink:href="#22" y="47.762"/><use xlink:href="#23" y="49.933"/><use xlink:href="#24" y="54.275"/><use xlink:href="#25" y="56.446"/><use xlink:href="#1" y="60.788"/></svg></svg></g></g></svg></svg>